<svg width="507" height="507" viewBox="0 0 507 507" fill="none" xmlns="http://www.w3.org/2000/svg">
<path d="M438.881 306.127C396.935 208.85 365.497 136.726 342.071 82.3988C340.32 81.4673 338.162 80.3739 336.411 79.4423C360.45 135.192 393.115 210.16 437.146 312.272C437.548 310.075 438.357 308.04 438.881 306.127Z" fill="#FFCC01"/>
<path d="M441.621 294.488C442.185 291.884 442.587 289.687 443.15 287.083C414.779 222.069 386.407 157.056 358.605 91.7981C356.201 90.1359 353.514 88.5963 350.826 87.0567C380.345 156.297 411.126 225.331 441.621 294.488Z" fill="#FFCC01"/>
<path d="M430.311 330.061C431.119 328.026 432.213 325.868 433.022 323.833C393.071 228.056 356.198 144.108 324.888 74.628C323.26 73.9808 321.347 73.4564 319.596 72.5248C357.367 157.772 394.123 243.794 430.311 330.061Z" fill="#FFCC01"/>
<path d="M424.643 341.95C425.737 339.792 426.992 337.227 428.085 335.069C391.329 249.047 349.962 156.243 310.886 69.5343C309.38 69.1716 307.752 68.5245 306.246 68.1618C352.598 170.96 391.522 262.794 424.643 341.95Z" fill="#FFCC01"/>
<path d="M419.095 351.765C419.865 350.421 420.796 348.67 421.566 347.326C385.791 263.579 341.843 162.443 297.783 65.7403C295.87 65.2158 293.673 64.814 291.882 64.5739C358.505 211.254 395.585 296.462 419.095 351.765Z" fill="#FFCC01"/>
<path d="M413.745 360.481L283.093 62.9666C281.303 62.7265 279.106 62.3247 277.031 62.2073C332.832 189.266 377.344 287.798 411.151 364.635C411.798 363.007 412.691 361.947 413.745 360.481Z" fill="#FFCC01"/>
<path d="M402.35 375.514C403.242 374.455 403.85 373.518 404.865 372.743C355.531 263.809 313.3 166.655 271.254 61.3254C270.156 61.1245 269.18 61.208 268.081 61.0071C310.657 166.783 338.587 234.685 402.35 375.514Z" fill="#FFCC01"/>
<path d="M398.617 380.159C399.794 378.977 400.563 377.633 401.74 376.451C372.672 309.04 341.365 259.123 254.779 60.6705C253.111 60.7149 251.728 60.6366 250.061 60.681C285.295 139.263 322.487 220.038 329.557 234.868C352.482 283.339 377.398 330.952 398.617 380.159Z" fill="#FFCC01"/>
<path d="M385.794 393.447C387.539 392.02 388.878 390.43 390.217 388.841C346.95 283.026 294.343 165.721 244.244 60.4906C242.861 60.4123 241.601 60.6185 240.34 60.8247C305.476 197.014 348.247 299.333 385.794 393.447Z" fill="#FFCC01"/>
<path d="M372.803 404.783C373.818 404.008 374.833 403.233 375.848 402.458C344.429 320.206 292.119 190.292 231.394 61.9834C230.134 62.1896 228.589 62.5184 227.206 62.4401C274.528 162.796 319.207 263.28 372.803 404.783Z" fill="#FFCC01"/>
<path d="M345.329 358.274C352.403 375.463 358.909 392.897 365.577 409.924C367.161 408.903 368.622 407.599 370.206 406.578C323.778 287.958 276.963 195.817 213.344 64.708C212.083 64.9142 210.945 65.4048 209.685 65.6109C250.34 148.94 300.752 248.638 345.329 358.274Z" fill="#FFCC01"/>
<path d="M359.933 414.044C333.038 354.803 286.241 252.535 202.368 67.4168C201.108 67.623 199.97 68.1136 198.425 68.4424C282.587 255.797 328.409 358.149 354.896 417.228C356.765 416.085 358.349 415.065 359.933 414.044Z" fill="#FFCC01"/>
<path d="M347.136 421.923C348.72 420.902 350.589 419.759 352.295 419.023C307.003 317.117 244.104 180.638 192.896 70.4883C191.759 70.9789 190.783 71.0625 189.645 71.5531C281.351 267.798 281.484 272.8 347.136 421.923Z" fill="#FFCC01"/>
<path d="M345.43 422.659C297.936 317.992 233.57 180.458 182.858 73.8052C181.436 74.4185 180.014 75.0317 178.592 75.645C227.302 178.438 286.02 300.529 341.571 424.66C342.993 424.047 344.415 423.434 345.43 422.659Z" fill="#FFCC01"/>
<path d="M332.146 429.399C304.939 375.69 238.175 238.854 165.347 81.6939C164.209 82.1845 163.478 82.8369 162.341 83.3275C218.783 206.399 281.098 336.047 327.88 431.239C328.449 430.993 331.293 429.767 332.146 429.399Z" fill="#FFCC01"/>
<path d="M318.656 434.879C320.078 434.266 321.216 433.775 322.76 433.446C250.089 273.521 197.738 161.503 161.042 84.2252C159.458 85.2456 157.467 86.1041 155.883 87.1245C203.283 186.097 215.209 208.278 318.656 434.879Z" fill="#FFCC01"/>
<path d="M335.437 427.643C336.575 427.152 337.712 426.662 339.135 426.048C292.626 326.016 226.75 185.761 175.179 77.1167C174.042 77.6073 173.188 77.9753 172.051 78.4659C214.222 166.876 287.006 322.368 335.437 427.643Z" fill="#FFCC01"/>
<path d="M308.9 438.073C310.73 437.622 312.436 436.886 314.266 436.434C262.992 315.181 202.959 186.912 154.582 88.0221C153.445 88.5127 152.429 89.2878 151.576 89.6557C209.386 205.729 260.933 322.141 308.9 438.073Z" fill="#FFCC01"/>
<path d="M303.412 439.428C186.635 181.132 180.124 161.339 147.554 92.0644C145.686 93.2074 144.225 94.5122 142.356 95.6552C196.826 209.458 253.285 339.607 298.047 441.067C299.753 440.331 301.583 439.879 303.412 439.428Z" fill="#FFCC01"/>
<path d="M287.803 443.123C289.632 442.671 291.584 442.504 293.414 442.053C253.675 349.896 195.51 220.483 137.566 99.4076C136.267 100.305 134.967 101.203 133.79 102.385C222.258 287.208 261.551 379.895 287.803 443.123Z" fill="#FFCC01"/>
<path d="M280.24 444.36C230.409 331.93 178.304 220.481 125.06 109.522C123.599 110.827 122.138 112.132 120.676 113.437C172.292 223.748 224.314 334.221 274.791 445.023C276.743 444.856 278.288 444.527 280.24 444.36Z" fill="#FFCC01"/>
<path d="M268.244 445.485C216.786 332.408 160.432 212.671 115.239 118.818C114.347 119.877 113.17 121.059 112.277 122.119C154.281 208.576 207.647 319.819 264.341 445.819C265.724 445.897 266.984 445.691 268.244 445.485Z" fill="#FFCC01"/>
<path d="M248.927 446.057C227.395 402.381 214.433 371.54 103.677 131.899C103.069 132.836 102.339 133.488 101.731 134.425C149.387 238.685 210.167 373.38 244.9 446.106C246.161 445.9 247.544 445.978 248.927 446.057Z" fill="#FFCC01"/>
<path d="M224.071 443.956C226.146 444.074 228.059 444.598 230.133 444.716C172.675 322.419 134.309 225.622 98.2834 138.948C97.1066 140.13 96.0523 141.596 95.2826 142.94C134.802 246.323 176.788 342.909 224.071 443.956Z" fill="#FFCC01"/>
<path d="M223.379 443.917C188.278 370.337 165.882 322.312 87.3782 155.119C86.6084 156.463 85.8386 157.807 85.0688 159.151C136.929 270.031 182.74 367.665 217.886 442.913C219.676 443.153 221.589 443.677 223.379 443.917Z" fill="#FFCC01"/>
<path d="M202.138 439.246C204.05 439.771 205.963 440.295 207.876 440.82C167.6 363.062 119.815 256.159 80.3715 168.597C79.8861 169.818 79.1163 171.162 78.631 172.383C110.22 239.382 193.15 421.533 202.138 439.246Z" fill="#FFCC01"/>
<path d="M201.73 439.085C165.151 359.732 115.003 250.475 78.5077 172.099C77.7379 173.443 77.3752 174.949 76.6054 176.293C111.305 252.07 159.859 357.629 196.967 437.428C198.596 438.075 200.224 438.722 201.73 439.085Z" fill="#FFCC01"/>
<path d="M188.503 435.006C190.131 435.653 191.637 436.016 193.265 436.663C157.958 361.823 110.761 281.315 71.9536 187.406C71.3064 189.035 70.9437 190.541 70.2966 192.169C116.536 299.401 150.202 349.313 188.503 435.006Z" fill="#FFCC01"/>
<path d="M171.161 427.642C173.603 428.613 175.884 429.991 178.326 430.962C118.737 319.366 101.404 279.953 67.1111 204.337C66.7484 205.843 66.2239 207.756 65.8612 209.261C103.231 296.706 135.344 361.792 171.161 427.642Z" fill="#FFCC01"/>
<path d="M142.408 411.031C144.281 412.247 146.278 413.747 148.151 414.963C89.968 295.678 107.022 337.573 62.4002 226.27C61.9592 229.159 61.5183 232.048 61.4844 235.098C73.76 268.26 80.0152 282.766 142.408 411.031Z" fill="#FFCC01"/>
<path d="M120.649 393.427C123.421 395.943 126.315 398.743 129.371 401.135C103.763 353.483 82.3094 308.425 60.6054 260.439C60.5715 263.49 60.9447 266.702 61.1953 269.63C78.0767 307.215 100.762 357.476 120.649 393.427Z" fill="#FFCC01"/>
<path d="M101.2 371.792C88.6065 341.803 76.7432 311.163 62.7271 281.787C63.4683 285.853 64.2094 289.919 64.9506 293.984C89.0241 346.683 83.6198 349.014 101.2 371.792Z" fill="#FFCC01"/>
<path d="M446.184 260.476C423.17 208.67 398.89 154.71 376.98 105.464C375.268 103.841 373.394 102.625 371.682 101.002C400.177 166.299 424.623 222.21 445.39 269.588C445.831 266.7 446.15 263.526 446.184 260.476Z" fill="#FFCC01"/>
<path d="M443.822 223.713C427.269 187.673 412.963 156.062 400.62 129.001C397.765 125.51 394.626 122.141 391.609 119.057C409.795 158.103 428.104 197.433 445.27 234.895C445.059 231.275 444.44 227.494 443.822 223.713Z" fill="#FFCC01"/>
<path d="M435.205 189.649C422.533 161.043 421.507 157.1 409.676 140.614C419.282 162.108 429.908 185.186 441.147 209.687C439.587 202.939 437.742 196.313 435.205 189.649Z" fill="#FFCC01"/>
</svg>
