<svg xmlns="http://www.w3.org/2000/svg" width="145" height="20" fill="none" viewBox="0 0 145 20"><path fill="#2B2B2A" d="M30 16.785c-3.648 0-6.505-2.861-6.505-6.735 0-3.873 2.857-6.81 6.505-6.81 3.648 0 6.505 2.937 6.505 6.81 0 3.874-2.857 6.735-6.505 6.735ZM30 0c-5.612 0-10 4.455-10 10.05C20 15.62 24.388 20 30 20s10-4.38 10-9.95C40 4.455 35.612 0 30 0ZM73 16.785c-3.648 0-6.505-2.861-6.505-6.735 0-3.873 2.857-6.81 6.505-6.81 3.648 0 6.505 2.937 6.505 6.81 0 3.874-2.857 6.735-6.505 6.735ZM73 0c-5.612 0-10 4.455-10 10.05C63 15.62 67.388 20 73 20s10-4.38 10-9.95C83 4.455 78.612 0 73 0ZM113 16.785c-3.648 0-6.505-2.861-6.505-6.735 0-3.873 2.857-6.81 6.505-6.81 3.648 0 6.505 2.937 6.505 6.81 0 3.874-2.857 6.735-6.505 6.735ZM113 0c-5.612 0-10 4.455-10 10.05 0 5.57 4.388 9.95 10 9.95s10-4.38 10-9.95C123 4.455 118.612 0 113 0ZM90.648 0H87v20h14v-3.237H90.648V0ZM141.198 0l-6.211 14.132L128.802 0H125l8.847 20h2.306L145 0h-3.802ZM60.343 0H55.8l-8.233 8.56V0H44v20h3.568v-8.892L56.12 20H61L50.807 9.667 60.342 0ZM0 14.194C.226 16.72 2.305 20 8.35 20c4.597 0 7.65-2.36 7.65-6.034 0-3.778-3.02-5.115-5.748-5.465-1.15-.148-2.525-.322-3.572-.456-1.858-.237-2.719-.974-2.719-2.277 0-1.686 1.75-2.77 3.884-2.77 2.178 0 3.62.756 4.271 2.505h3.496C15.2 3.219 13.344 0 7.845 0 3.213 0 .388 2.86.388 5.996c0 4.013 3.334 4.974 6.068 5.332 1.053.138 2.12.28 3.059.399 1.857.235 2.912 1.062 2.912 2.466 0 1.405-1.104 2.77-4.155 2.77-2.956 0-4.483-1.355-4.738-2.77H0Z"></path></svg>